<svg viewBox="0 0 32 32" xmlns="http://www.w3.org/2000/svg"><path d="m28.83 23.17-5.83-5.84v-4.33a1 1 0 0 0 -.29-.71l-10-10a1 1 0 0 0 -1.42 0l-9 9a1 1 0 0 0 0 1.42l10 10a1 1 0 0 0 .71.29h4.34l5.83 5.84a4 4 0 0 0 5.66-5.66zm-22.83-12.76 2.29 2.3 1.42-1.42-2.3-2.29 1.59-1.59 4.29 4.3 1.42-1.42-4.3-4.29 1.59-1.59 6.59 6.59-7.59 7.59-6.59-6.59zm21.41 17a2 2 0 0 1 -2.82 0l-6.13-6.12a1.8 1.8 0 0 0 -.71-.29h-4.34l-1-1 7.59-7.59 1 1v4.34a1 1 0 0 0 .29.7l6.12 6.14a2 2 0 0 1 0 2.82z"/><path d="m0 0h32v32h-32z" fill="none"/></svg>